HIERARCHY
ROOT Hips
{
	OFFSET -0.001795 -0.223333 0.028219
	CHANNELS 6 Xposition Yposition Zposition Zrotation Yrotation Xrotation 
	JOINT LeftUpLeg
	{
		OFFSET 0.069520 -0.091406 -0.006815
		CHANNELS 3 Zrotation Yrotation Xrotation
		JOINT LeftLeg
		{
			OFFSET 0.034277 -0.375199 -0.004496
			CHANNELS 3 Zrotation Yrotation Xrotation
			JOINT LeftFoot
			{
				OFFSET -0.013596 -0.397961 -0.043693
				CHANNELS 3 Zrotation Yrotation Xrotation
				JOINT LeftToe
				{
					OFFSET 0.026358 -0.055791 0.119288
					CHANNELS 3 Zrotation Yrotation Xrotation
					End Site
					{
						OFFSET 0.000000 0.000000 0.000000
					}
				}
			}
		}
	}
	JOINT RightUpLeg
	{
		OFFSET -0.067670 -0.090522 -0.004320
		CHANNELS 3 Zrotation Yrotation Xrotation
		JOINT RightLeg
		{
			OFFSET -0.038290 -0.382569 -0.008850
			CHANNELS 3 Zrotation Yrotation Xrotation
			JOINT RightFoot
			{
				OFFSET 0.015774 -0.398415 -0.042312
				CHANNELS 3 Zrotation Yrotation Xrotation
				JOINT RightToe
				{
					OFFSET -0.025372 -0.048144 0.123348
					CHANNELS 3 Zrotation Yrotation Xrotation
					End Site
					{
						OFFSET 0.000000 0.000000 0.000000
					}
				}
			}
		}
	}
	JOINT Spine
	{
		OFFSET -0.002533 0.108963 -0.026696
		CHANNELS 3 Zrotation Yrotation Xrotation
		JOINT Spine1
		{
			OFFSET 0.005487 0.135180 0.001092
			CHANNELS 3 Zrotation Yrotation Xrotation
			JOINT Spine2
			{
				OFFSET 0.001457 0.052922 0.025425
				CHANNELS 3 Zrotation Yrotation Xrotation
				JOINT Neck
				{
					OFFSET -0.002778 0.213870 -0.042857
					CHANNELS 3 Zrotation Yrotation Xrotation
					JOINT Head
					{
						OFFSET 0.005152 0.064970 0.051349
						CHANNELS 3 Zrotation Yrotation Xrotation
						End Site
						{
							OFFSET 0.000000 0.000000 0.000000
						}
					}
				}
				JOINT LeftShoulder
				{
					OFFSET 0.078845 0.121749 -0.034090
					CHANNELS 3 Zrotation Yrotation Xrotation
					JOINT LeftArm
					{
						OFFSET 0.090977 0.030469 -0.008868
						CHANNELS 3 Zrotation Yrotation Xrotation
						JOINT LeftForeArm
						{
							OFFSET 0.259612 -0.012772 -0.027456
							CHANNELS 3 Zrotation Yrotation Xrotation
							JOINT LeftHand
							{
								OFFSET 0.249234 0.008986 -0.001171
								CHANNELS 3 Zrotation Yrotation Xrotation
								End Site
								{
									OFFSET 0.000000 0.000000 0.000000
								}
							}
						}
					}
				}
				JOINT RightShoulder
				{
					OFFSET -0.081759 0.118833 -0.038615
					CHANNELS 3 Zrotation Yrotation Xrotation
					JOINT RightArm
					{
						OFFSET -0.096012 0.032551 -0.009143
						CHANNELS 3 Zrotation Yrotation Xrotation
						JOINT RightForeArm
						{
							OFFSET -0.253742 -0.013329 -0.021401
							CHANNELS 3 Zrotation Yrotation Xrotation
							JOINT RightHand
							{
								OFFSET -0.255298 0.007772 -0.005559
								CHANNELS 3 Zrotation Yrotation Xrotation
								End Site
								{
									OFFSET 0.000000 0.000000 0.000000
								}
							}
						}
					}
				}
			}
		}
	}
}
MOTION
Frames: 13
Frame Time: 0.050000
0.000000 0.967398 0.000000 -1.132549 3.995601 0.302799 3.997716 0.235419 6.389064 -2.593349 0.335191 -8.414297 5.559412 14.633699 17.368433 0.000000 0.000000 0.000000 -2.423755 -0.081409 1.433768 0.812063 -0.110617 -0.560764 -4.516010 -13.169519 13.058769 0.000000 0.000000 0.000000 4.985779 -0.326691 3.237958 -4.767785 1.797212 -24.810930 -2.088117 1.180033 28.738890 7.881858 -4.296876 -15.378809 0.000000 0.000000 0.000000 12.309472 1.506367 0.438288 -12.406401 -16.088473 -1.273709 15.510912 -0.410163 -0.055651 0.000000 0.000000 0.000000 -2.845553 -12.035883 -4.168449 14.516245 15.200724 -1.241601 -15.402251 5.898676 -0.100708 0.000000 0.000000 0.000000 
0.000297 0.966578 -0.000694 -1.417214 3.449468 0.589751 3.808909 0.260923 6.472946 -1.947936 0.337210 -9.674966 5.740989 14.772387 16.937059 0.000000 0.000000 0.000000 -2.272039 -0.083203 1.466060 1.010270 -0.142230 -0.929211 -4.910713 -13.879692 12.333690 0.000000 0.000000 0.000000 5.860177 -0.329227 2.826589 -5.545078 1.966051 -24.844084 -1.903960 1.412370 28.372379 7.087036 -3.964405 -13.821884 0.000000 0.000000 0.000000 12.557463 1.479205 0.451036 -13.483840 -15.477452 -1.311249 14.618535 -2.072777 -0.199380 0.000000 0.000000 0.000000 -2.008320 -12.785999 -4.506812 14.136863 14.499793 -1.245232 -13.856670 9.280230 -0.376612 0.000000 0.000000 0.000000 
0.000514 0.965816 -0.001535 -0.923030 2.440917 0.275315 3.373382 0.317923 6.513798 -1.875532 0.329870 -8.353274 6.142896 15.309050 17.541084 0.000000 0.000000 0.000000 -3.282119 -0.073675 1.807225 1.355694 -0.180483 -1.084276 -3.768361 -11.880287 12.370323 0.000000 0.000000 0.000000 5.841222 -0.329698 2.945222 -5.472259 1.918935 -25.555026 -2.188909 3.204700 30.014854 8.362184 -4.699562 -14.318290 0.000000 0.000000 0.000000 12.260793 1.690663 0.473898 -14.231050 -16.697695 -1.335538 15.498445 -2.006726 -0.247112 0.000000 0.000000 0.000000 0.161266 -13.776892 -5.179314 14.916608 16.556502 -1.241270 -15.327492 8.238910 -0.289366 0.000000 0.000000 0.000000 
0.000748 0.966755 -0.002384 -1.023095 2.107200 -0.302641 3.365223 0.346189 6.833292 -1.976637 0.327517 -7.717887 6.463861 15.565584 16.037914 0.000000 0.000000 0.000000 -3.480293 -0.085934 2.035292 1.830898 -0.219821 -0.716052 -3.493559 -11.477668 12.773797 0.000000 0.000000 0.000000 6.400838 -0.364155 3.222044 -5.765164 1.991543 -25.376811 -2.266318 3.269945 30.720695 8.181186 -4.645369 -14.081390 0.000000 0.000000 0.000000 12.203558 1.495153 0.476044 -16.763089 -16.816843 -1.398734 17.553230 -3.145785 -0.421680 0.000000 0.000000 0.000000 0.973433 -13.741510 -5.255591 15.401767 17.585808 -1.189113 -14.911436 8.349384 -0.285491 0.000000 0.000000 0.000000 
0.000741 0.967380 -0.003268 -0.746495 1.922586 -0.525101 3.505126 0.338746 6.786617 -2.633230 0.350904 -7.344564 5.990818 14.903031 16.226360 0.000000 0.000000 0.000000 -3.805746 -0.082343 2.145828 1.728717 -0.204523 -0.549184 -3.088636 -10.740275 12.690789 0.000000 0.000000 0.000000 6.038199 -0.373881 3.527094 -5.188642 1.857025 -25.462134 -2.609508 3.777879 30.241700 8.347522 -4.712910 -13.947356 0.000000 0.000000 0.000000 10.896894 0.938970 0.579365 -18.234936 -17.018037 -1.391282 18.374147 -5.455068 -0.766776 0.000000 0.000000 0.000000 2.098690 -13.004982 -5.079449 17.330947 17.354198 -1.176404 -14.930511 9.383197 -0.362517 0.000000 0.000000 0.000000 
0.000682 0.967701 -0.004055 -0.622451 1.736956 -0.502475 3.463031 0.330783 6.528624 -2.647918 0.350096 -6.935254 6.027740 14.887308 15.774782 0.000000 0.000000 0.000000 -4.169462 -0.054672 1.959821 1.817146 -0.206558 -0.268691 -2.730817 -10.046526 12.425268 0.000000 0.000000 0.000000 6.045210 -0.355119 3.327838 -5.323366 1.893003 -25.181449 -2.594620 3.647278 30.196279 8.449809 -4.549548 -15.301551 0.000000 0.000000 0.000000 9.996674 0.882428 0.507608 -21.340702 -17.261209 -1.406908 19.016438 -7.558501 -1.055511 0.000000 0.000000 0.000000 2.627583 -13.131581 -5.187369 20.974674 18.315565 -1.001627 -15.316990 10.225702 -0.435154 0.000000 0.000000 0.000000 
0.000525 0.967201 -0.004747 -0.586386 1.472647 -0.481519 3.668080 0.308886 6.322408 -2.925371 0.364129 -6.813265 5.893849 14.689099 15.910729 0.000000 0.000000 0.000000 -4.128699 -0.032224 1.647714 1.625444 -0.182447 -0.170042 -2.494573 -9.587001 12.191550 0.000000 0.000000 0.000000 5.952973 -0.344265 3.250962 -4.917681 1.809406 -24.642731 -2.908228 3.561054 29.515003 8.409704 -4.497626 -15.471372 0.000000 0.000000 0.000000 7.765835 0.682563 0.389434 -23.751553 -16.692711 -1.484594 19.246787 -9.630876 -1.328798 0.000000 0.000000 0.000000 4.263817 -12.670973 -5.180755 23.506383 18.474465 -0.896894 -15.879503 11.675467 -0.600236 0.000000 0.000000 0.000000 
0.000323 0.966648 -0.005304 -0.655235 1.257999 -0.259651 3.770339 0.259030 5.530690 -3.056395 0.366941 -5.998189 6.329594 15.281392 15.819014 0.000000 0.000000 0.000000 -4.075352 0.019620 0.903231 1.683454 -0.170751 0.535174 -2.439498 -9.391543 11.661568 0.000000 0.000000 0.000000 6.196903 -0.339774 3.065172 -4.752755 1.768597 -24.525499 -3.110509 3.623874 29.582017 8.783735 -4.600623 -16.433173 0.000000 0.000000 0.000000 5.137293 0.220430 0.319390 -26.702384 -16.248421 -1.622543 19.614306 -11.912804 -1.651753 0.000000 0.000000 0.000000 6.143193 -12.717366 -5.422719 27.341678 18.883529 -0.759101 -16.786636 13.346348 -0.789936 0.000000 0.000000 0.000000 
0.000057 0.965923 -0.005740 -0.632572 0.779928 -0.085861 3.911569 0.226532 4.996460 -3.396406 0.388002 -5.480151 6.485244 15.463597 15.817613 0.000000 0.000000 0.000000 -4.185066 0.050030 0.584776 1.769800 -0.177760 0.563061 -2.141609 -8.782648 11.252634 0.000000 0.000000 0.000000 6.173849 -0.321965 2.861447 -4.521105 1.712826 -24.290959 -3.090377 3.854352 29.449094 8.570456 -4.256193 -17.399188 0.000000 0.000000 0.000000 2.380337 -0.475379 0.328922 -29.748468 -16.194393 -1.687689 19.480557 -12.958373 -1.741837 0.000000 0.000000 0.000000 8.253367 -12.395276 -5.533335 31.268135 18.691388 -0.692859 -17.417980 15.375740 -1.015340 0.000000 0.000000 0.000000 
-0.000278 0.965469 -0.006013 -0.616357 0.869738 0.121818 4.280188 0.164757 4.284814 -3.801338 0.410907 -5.158546 6.815787 15.935982 15.740673 0.000000 0.000000 0.000000 -4.131601 0.102902 -0.234439 1.658650 -0.151239 1.140148 -2.082174 -8.496972 10.598899 0.000000 0.000000 0.000000 6.159885 -0.288655 2.467281 -4.333015 1.678740 -23.633869 -3.292642 3.700807 29.133267 8.678397 -4.122131 -18.548940 0.000000 0.000000 0.000000 -0.500352 -1.027283 0.300782 -32.975992 -16.026585 -1.759467 19.342282 -14.737640 -1.927583 0.000000 0.000000 0.000000 10.673107 -11.989068 -5.647641 35.494622 18.176303 -0.689065 -17.643211 16.958746 -1.159226 0.000000 0.000000 0.000000 
-0.000621 0.964803 -0.006088 -0.641357 0.855604 0.208744 4.464873 0.135607 3.914344 -3.817256 0.411961 -4.773482 7.027005 16.243909 15.826360 0.000000 0.000000 0.000000 -4.276115 0.124385 -0.514397 1.853352 -0.168706 1.379043 -2.122382 -8.514145 10.347279 0.000000 0.000000 0.000000 6.087687 -0.294547 2.534304 -4.188653 1.645575 -23.451177 -3.222826 3.668663 28.908055 8.423115 -3.844532 -19.111757 0.000000 0.000000 0.000000 -3.304189 -1.561819 0.282889 -35.965187 -15.443829 -1.945358 18.265102 -17.246633 -2.068873 0.000000 0.000000 0.000000 13.167876 -11.546622 -5.742869 39.731882 17.250736 -0.838560 -16.981151 19.154771 -1.250367 0.000000 0.000000 0.000000 
-0.000902 0.964394 -0.005965 -0.666890 0.795990 0.357061 4.624086 0.098903 3.345677 -3.927691 0.420086 -4.226725 7.134095 16.375902 15.640729 0.000000 0.000000 0.000000 -4.310978 0.151348 -0.899736 1.889450 -0.166354 1.659684 -2.200904 -8.612669 10.101076 0.000000 0.000000 0.000000 6.151833 -0.289681 2.430195 -4.404451 1.700740 -23.251270 -2.956530 3.796517 28.958657 8.456753 -3.682670 -20.083815 0.000000 0.000000 0.000000 -5.613092 -1.724029 0.158309 -39.869716 -14.837419 -2.211419 16.368033 -20.500696 -2.095355 0.000000 0.000000 0.000000 15.380106 -11.241951 -5.848497 44.603868 15.831302 -1.195139 -15.825530 21.333925 -1.207582 0.000000 0.000000 0.000000 
-0.001148 0.964183 -0.005704 -0.653868 1.135368 0.547765 4.808983 0.047360 2.579231 -4.187775 0.436508 -3.582309 6.839381 15.940565 15.205308 0.000000 0.000000 0.000000 -4.290772 0.169319 -1.208776 1.714156 -0.144068 1.756906 -2.448561 -9.072785 10.144364 0.000000 0.000000 0.000000 6.103456 -0.288646 2.387817 -4.377394 1.699457 -23.200990 -2.800881 3.760057 28.919536 8.300956 -3.463003 -20.592708 0.000000 0.000000 0.000000 -8.159742 -2.145742 0.100923 -43.910459 -14.054444 -2.563748 14.093884 -23.485602 -1.909264 0.000000 0.000000 0.000000 17.574040 -10.934094 -5.924314 49.449333 13.867752 -1.858916 -14.519551 23.362984 -1.065379 0.000000 0.000000 0.000000 
